Coordinates
version=1
nRows=22
nColumns=24
inDegrees=yes

Units are S.I. units (second, meters, Newtons, ...)
Angles are in degrees.

endheader
time	pelvis_tilt	pelvis_list	pelvis_rotation	pelvis_tx	pelvis_ty	pelvis_tz	hip_flexion_r	hip_adduction_r	hip_rotation_r	knee_angle_r	ankle_angle_r	subtalar_angle_r	mtp_angle_r	hip_flexion_l	hip_adduction_l	hip_rotation_l	knee_angle_l	ankle_angle_l	subtalar_angle_l	mtp_angle_l	lumbar_extension	lumbar_bending	lumbar_rotation
      0.70016667	     -0.97842207	     -1.43119895	     -2.54913106	     -0.54572339	      1.01347341	      0.31495777	     14.59065200	      4.42274197	     -3.15993792	    -17.74917626	     -1.13212189	    -10.54598976	     -3.63334716	     20.61247902	     -7.11116253	     -9.50794114	    -72.08605770	     -0.77478670	    -15.57200444	      2.23967754	    -12.90061017	      2.81106533	      7.39929637
      0.70433333	     -0.97490537	     -1.38164063	     -2.62198350	     -0.54024316	      1.01443416	      0.31525200	     14.10219764	      4.39688361	     -3.07366291	    -17.47177950	     -1.02812697	    -10.52607858	     -3.63027287	     21.21840345	     -7.04283180	     -9.52179270	    -71.88945611	     -0.57850323	    -15.55809482	      2.21967463	    -12.89757409	      2.73920201	      7.46000377
      0.70850000	     -0.97191124	     -1.33732949	     -2.68906603	     -0.53480541	      1.01535557	      0.31550307	     13.61700455	      4.37170961	     -2.99144998	    -17.19334466	     -0.93660015	    -10.50218714	     -3.62801247	     21.81566369	     -6.97206903	     -9.53402217	    -71.62873714	     -0.36039376	    -15.52290464	      2.20166721	    -12.90074548	      2.67320756	      7.54098716
      0.71266667	     -0.93648102	     -1.30467031	     -2.75121506	     -0.52937536	      1.01630280	      0.31576626	     13.09387064	      4.35688395	     -2.91406828	    -16.90583697	     -0.88924953	    -10.47576294	     -3.62624849	     22.35604035	     -6.91383383	     -9.54654445	    -71.29351919	     -0.05953277	    -15.36266619	      2.14390369	    -12.96219852	      2.61207940	      7.76503400
      0.71683333	     -0.93621848	     -1.26600805	     -2.82980152	     -0.52386146	      1.01719126	      0.31605272	     12.59559650	      4.34067138	     -2.82224684	    -16.60131456	     -0.79754290	    -10.46610467	     -3.62590331	     22.90244680	     -6.85836328	     -9.60274385	    -70.86914110	      0.09445681	    -15.37159973	      2.11953276	    -12.94528939	      2.55579658	      7.83426220
      0.72100000	     -0.76935249	     -1.19860895	     -2.98118423	     -0.51836899	      1.01839792	      0.31653468	     11.90684996	      4.31035285	     -2.61409118	    -16.26400366	     -0.75749601	    -10.49064483	     -3.63683496	     23.20042122	     -6.80304194	     -9.75644144	    -70.30732532	      0.26894197	    -15.26445992	      1.97155966	    -13.14998939	      2.41217067	      8.18147703
      0.72516667	     -0.79551093	     -1.16776352	     -3.05398641	     -0.51284961	      1.01918074	      0.31679041	     11.43687413	      4.29631897	     -2.53317343	    -15.95799009	     -0.69401737	    -10.47034860	     -3.63891264	     23.73531281	     -6.74922537	     -9.81824813	    -69.74117802	      0.42195947	    -15.30593664	      1.95194940	    -13.10377357	      2.36185731	      8.20287078
      0.72933333	     -0.60031033	     -1.05849665	     -3.21496628	     -0.50729986	      1.02042416	      0.31724511	     10.71338819	      4.20898326	     -2.32978846	    -15.61190785	     -0.66111942	    -10.47777087	     -3.66833480	     23.93517023	     -6.64121581	    -10.02073333	    -68.99325927	      0.52424108	    -15.29562465	      1.79777744	    -13.33033311	      2.17210411	      8.43892147
      0.73350000	     -0.65347798	     -1.06005288	     -3.26999180	     -0.50178725	      1.02108184	      0.31744650	     10.26612609	      4.22452985	     -2.24971310	    -15.29679054	     -0.57706101	    -10.44579503	     -3.66984731	     24.46575579	     -6.61301271	    -10.06725126	    -68.30369275	      0.65330023	    -15.32177974	      1.78731403	    -13.26246781	      2.16888821	      8.46126931
      0.73766667	     -0.42483845	     -0.95088712	     -3.41173718	     -0.49617149	      1.02233301	      0.31787233	      9.49076739	      4.12307963	     -2.09481060	    -14.92101068	     -0.58099111	    -10.47684891	     -3.71415953	     24.57319300	     -6.49733925	    -10.28128897	    -67.39993208	      0.72263824	    -15.32952546	      1.65432642	    -13.51106545	      1.96254824	      8.69711740
      0.74183333	     -0.45198813	     -0.93788168	     -3.49166537	     -0.49058633	      1.02300257	      0.31809839	      9.00678033	      4.11741667	     -2.01759155	    -14.58365935	     -0.59212132	    -10.41469030	     -3.72900062	     25.00076623	     -6.46217165	    -10.38289343	    -66.54340499	      0.84195917	    -15.32720761	      1.61628292	    -13.46305063	      1.93857078	      8.74341229
      0.74600000	     -0.23129726	     -0.84989636	     -3.64508816	     -0.48495619	      1.02415162	      0.31853921	      8.24128317	      4.03487642	     -1.85628028	    -14.21817325	     -0.51559135	    -10.42918770	     -3.78541853	     25.06503650	     -6.37595784	    -10.62537552	    -65.51021063	      0.88315365	    -15.37662679	      1.49106347	    -13.69273699	      1.76313358	      8.94380629
      0.75016667	     -0.11601506	     -0.80758833	     -3.75857630	     -0.47935189	      1.02502749	      0.31888750	      7.58924584	      3.99790155	     -1.71708523	    -13.85172215	     -0.48268446	    -10.40618360	     -3.84988719	     25.25211567	     -6.32332924	    -10.80250018	    -64.46595764	      0.95996005	    -15.35881052	      1.36910135	    -13.82025257	      1.65740376	      9.07275318
      0.75433333	     -0.14538208	     -0.81055599	     -3.82402624	     -0.47372998	      1.02556520	      0.31907771	      7.10413117	      4.00134265	     -1.66877894	    -13.51237336	     -0.49167055	    -10.37259603	     -3.87444615	     25.60452084	     -6.29713552	    -10.91172857	    -63.40862019	      1.02117143	    -15.34584247	      1.32815774	    -13.75967005	      1.65090141	      9.13712550
      0.75850000	      0.12690296	     -0.74003851	     -3.98013686	     -0.46807484	      1.02666362	      0.31952020	      6.27573714	      3.92434185	     -1.50860190	    -13.13312925	     -0.40583132	    -10.36487169	     -3.95221869	     25.52595230	     -6.22802680	    -11.18722710	    -62.17520559	      1.05150689	    -15.38777226	      1.20654348	    -14.05477659	      1.47717841	      9.32144900
      0.76266667	      0.23596953	     -0.72086315	     -4.08947733	     -0.46244577	      1.02738055	      0.31983347	      5.63193172	      3.90152671	     -1.39139302	    -12.77160804	     -0.36948746	    -10.34810452	     -4.03635998	     25.63945880	     -6.19548060	    -11.38182103	    -60.94111013	      1.09670966	    -15.35267884	      1.08943294	    -14.16841785	      1.40538304	      9.45069449
      0.76683333	      0.17041873	     -0.74831763	     -4.14016140	     -0.45679102	      1.02770143	      0.31998332	      5.18626713	      3.92791093	     -1.36133701	    -12.43908045	     -0.36570666	    -10.32600252	     -4.06267572	     25.95599697	     -6.18943137	    -11.49328377	    -59.70641041	      1.13257802	    -15.30315128	      1.05469351	    -14.06262166	      1.42270081	      9.50539241
      0.77100000	      0.40190210	     -0.69551827	     -4.30339504	     -0.45112625	      1.02856929	      0.32040263	      4.41081435	      3.86160580	     -1.19584339	    -12.07711703	     -0.27255182	    -10.31392982	     -4.15189674	     25.84080415	     -6.13727091	    -11.78922427	    -58.29233331	      1.14753167	    -15.31895737	      0.94219352	    -14.31365184	      1.27679302	      9.68471014
      0.77516667	      0.33604395	     -0.75153939	     -4.34422221	     -0.44547505	      1.02876284	      0.32051967	      3.96862013	      3.91537577	     -1.17458128	    -11.75416014	     -0.25974241	    -10.30654687	     -4.18102440	     26.10973311	     -6.15666325	    -11.89895454	    -56.94802983	      1.16770310	    -15.21905352	      0.90860036	    -14.21099918	      1.32870406	      9.74505074
      0.77933333	      0.56803285	     -0.71614515	     -4.51429944	     -0.43981207	      1.02951758	      0.32093495	      3.19657372	      3.86237500	     -0.99743165	    -11.40006888	     -0.16390220	    -10.30161563	     -4.28271363	     25.93776822	     -6.12331565	    -12.21820539	    -55.41565035	      1.16860898	    -15.21280030	      0.79518292	    -14.46272429	      1.19846255	      9.92181750
      0.78350000	      0.60431026	     -0.75934070	     -4.59284127	     -0.43414255	      1.02980090	      0.32114736	      2.64061547	      3.89877179	     -0.92782625	    -11.06784607	     -0.11573803	    -10.33329653	     -4.37574984	     26.01082355	     -6.14106710	    -12.40862413	    -53.91681898	      1.19745132	    -15.12504557	      0.70161043	    -14.48884003	      1.20310269	     10.04317845
      0.78766667	      0.63356641	     -0.79939887	     -4.68956244	     -0.42848707	      1.03002198	      0.32136528	      2.10406994	      3.92943051	     -0.83325321	    -10.76000273	     -0.04118334	    -10.32675773	     -4.46705540	     26.05871186	     -6.15770169	    -12.62015961	    -52.34793060	      1.17773292	    -15.04965113	      0.61344856	    -14.49913934	      1.20403860	     10.14369260
